<svg xmlns="http://www.w3.org/2000/svg" width="263.623" height="228.36" viewBox="0 0 263.623 228.36"><defs><style>.cls-1{opacity:.099}.cls-2{fill:#499aef}.cls-3{fill:#a4ddf9}.cls-4{fill:#71c1f6}.cls-5{fill:#2a4d71}.cls-6,.cls-8{fill:#a3ddfa}.cls-6{opacity:.4}.cls-7{fill:#9fdcf9}.cls-8{opacity:.5}.cls-9{fill:#afe3fa}.cls-10,.cls-9{opacity:.6}.cls-10{fill:#b0e4fa}.cls-11{fill:#7fcff8}.cls-12,.cls-13{fill:#95d8f9;opacity:.7}.cls-13{fill:#c5eefb}</style></defs><g id="Hero_Texture_2_-_Home" data-name="Hero Texture 2 - Home" transform="translate(.095 -533.1)"><g id="Group_3586" class="cls-1" data-name="Group 3586" transform="translate(849.364 -409.181)"><g id="Group_1556" data-name="Group 1556" transform="translate(-849.459 1094.483)"><path id="Path_611" d="M-880.022 1085.7l65.909-.056z" class="cls-2" data-name="Path 611" transform="translate(880.022 -1009.542)"/><path id="Path_614" d="M-778.772 1061.951l-65.907-38.051v76.1z" class="cls-3" data-name="Path 614" transform="translate(910.586 -1023.9)"/><path id="Path_615" d="M-814.115 1100v-76.1l-65.9 38.051z" class="cls-4" data-name="Path 615" transform="translate(880.024 -1023.9)"/></g><g id="Group_1569" data-name="Group 1569" transform="translate(-651.741 942.28)"><path id="Path_683" d="M-773.994 1018.382l65.9-38.051-65.9-38.051z" class="cls-6" data-name="Path 683" transform="translate(773.994 -942.28)"/></g><g id="Group_1574" data-name="Group 1574" transform="translate(-915.364 980.331)"><path id="Path_692" d="M-880.021 1079.6l65.909-38.051-65.9-38.051z" class="cls-7" data-name="Path 692" transform="translate(945.928 -927.394)"/><path id="Path_694" d="M-814.114 1000.736l-65.9-38.051v76.1z" class="cls-8" data-name="Path 694" transform="translate(945.93 -962.685)"/><path id="Path_696" d="M-880.021 1021.141l65.909 38.051v-76.1l-65.9 38.051z" class="cls-9" data-name="Path 696" transform="translate(945.928 -945.039)"/></g><g id="Group_1577" data-name="Group 1577" transform="translate(-783.552 980.331)"><path id="Path_707" d="M-844.679 983.09v76.1l65.907-38.051z" class="cls-10" data-name="Path 707" transform="translate(844.679 -945.039)"/><path id="Path_708" d="M-809.336 1079.6l65.907-38.051-65.907-38.051z" class="cls-11" data-name="Path 708" transform="translate(875.243 -927.394)"/><path id="Path_709" d="M-778.773 1003.5l-65.9 38.051 65.9 38.051z" class="cls-12" data-name="Path 709" transform="translate(844.68 -927.394)"/><path id="Path_710" d="M-778.773 1038.786v-76.1l-65.9 38.051z" class="cls-13" data-name="Path 710" transform="translate(844.68 -962.685)"/></g></g></g></svg>