<svg xmlns="http://www.w3.org/2000/svg" xmlns:xlink="http://www.w3.org/1999/xlink" width="543.735" height="547.18" viewBox="0 0 543.735 547.18"><defs><linearGradient id="linear-gradient" x1=".887" x2=".453" y1="1.633" y2=".363" gradientUnits="objectBoundingBox"><stop offset="0" stop-color="#00bf6b"/><stop offset="1" stop-color="#007b6e"/></linearGradient><linearGradient id="linear-gradient-2" x1=".927" x2=".291" y1="1.495" y2=".012" xlink:href="#linear-gradient"/><linearGradient id="linear-gradient-3" x1="-.117" x2="1.534" y1=".064" y2="1.231" gradientUnits="objectBoundingBox"><stop offset="0" stop-color="#007b6e"/><stop offset="1" stop-color="#00bf6b"/></linearGradient><linearGradient id="linear-gradient-4" x1="1.133" x2="-.653" y1="1.183" y2="-.744" gradientUnits="objectBoundingBox"><stop offset="0" stop-color="#009b6b"/><stop offset=".146" stop-color="#00886b"/><stop offset=".438" stop-color="#00596d"/><stop offset=".556" stop-color="#00456e"/></linearGradient><linearGradient id="linear-gradient-5" x1=".5" x2=".5" y1="1.69" y2="-.082" gradientUnits="objectBoundingBox"><stop offset="0" stop-color="#009b6b"/><stop offset=".262" stop-color="#00886b"/><stop offset=".788" stop-color="#00596d"/><stop offset="1" stop-color="#00456e"/></linearGradient><linearGradient id="linear-gradient-6" x2="1" y1=".5" y2=".5" gradientUnits="objectBoundingBox"><stop offset="0" stop-color="#00456e"/><stop offset=".212" stop-color="#00596d"/><stop offset=".738" stop-color="#00886b"/><stop offset="1" stop-color="#009b6b"/></linearGradient><linearGradient id="linear-gradient-7" x1=".652" x2=".343" y1="1.35" y2="-.376" gradientUnits="objectBoundingBox"><stop offset="0" stop-color="#00766b"/><stop offset=".276" stop-color="#00636b"/><stop offset=".829" stop-color="#00346d"/><stop offset="1" stop-color="#00256e"/></linearGradient><linearGradient id="linear-gradient-8" x1=".751" x2=".34" y1="1.32" y2="-.021" gradientUnits="objectBoundingBox"><stop offset="0" stop-color="#00766b"/><stop offset=".277" stop-color="#00636b"/><stop offset=".832" stop-color="#00346d"/><stop offset="1" stop-color="#00256e"/></linearGradient><linearGradient id="linear-gradient-9" x1=".082" x2="1.843" y1=".863" y2="-.669" gradientUnits="objectBoundingBox"><stop offset="0" stop-color="#00256e"/><stop offset=".114" stop-color="#00366d"/><stop offset=".333" stop-color="#00526c"/><stop offset=".555" stop-color="#00666b"/><stop offset=".776" stop-color="#00726b"/><stop offset="1" stop-color="#00766b"/></linearGradient><linearGradient id="linear-gradient-10" x2="1" y1=".5" y2=".5" gradientUnits="objectBoundingBox"><stop offset="0" stop-color="#00ad6b"/><stop offset="1" stop-color="#00696e"/></linearGradient><linearGradient id="linear-gradient-12" x2=".628" y1="-.222" y2=".776" gradientUnits="objectBoundingBox"><stop offset="0" stop-color="#fc9661"/><stop offset="1" stop-color="#8d5330"/></linearGradient><linearGradient id="linear-gradient-14" x1="-.137" x2=".415" y1=".365" y2="1.074" gradientUnits="objectBoundingBox"><stop offset="0" stop-color="#e6e6e6"/><stop offset="1" stop-color="#919191"/></linearGradient><linearGradient id="linear-gradient-15" x1=".113" x2=".944" y1=".083" y2="1.611" gradientUnits="objectBoundingBox"><stop offset="0" stop-color="#e6e6e6"/><stop offset="1" stop-color="#717171"/></linearGradient><linearGradient id="linear-gradient-16" x1=".869" x2=".448" y1="-1.943" y2=".774" xlink:href="#linear-gradient-10"/><linearGradient id="linear-gradient-17" x1=".004" x2=".549" y1="-3.413" y2=".89" xlink:href="#linear-gradient-6"/><linearGradient id="linear-gradient-18" x1="-.261" x2=".948" y1="1.486" y2=".205" gradientUnits="objectBoundingBox"><stop offset="0" stop-color="#fff"/><stop offset="1" stop-color="gray"/></linearGradient><style>.cls-10{fill:url(#linear-gradient-10)}.cls-63{fill:none;stroke-miterlimit:10}.cls-12{fill:#00ce89}.cls-14{opacity:.1}.cls-21{fill:#1b243a}.cls-22,.cls-24,.cls-25,.cls-32,.cls-55{opacity:.6}.cls-23{opacity:.8}.cls-24,.cls-31{fill:#5dc98d}.cls-25{fill:gray}.cls-26,.cls-32{fill:#cd2b28}.cls-26{opacity:.4}.cls-28{fill:#161e2f}.cls-30{fill:#cbcbcb}.cls-35{fill:#f2af94}.cls-36{fill:#132038}.cls-37{fill:#18418c}.cls-38{fill:#ee8968}.cls-39{fill:#265ebc;opacity:.45}.cls-40{fill:#f6ccbd}.cls-41{fill:#17408c}.cls-43{fill:#b8e6f2}.cls-44{fill:#2257ae}.cls-45{fill:#6feea1}.cls-49{fill:#375c9c;opacity:.32}.cls-55,.cls-56{fill:#f7d147}.cls-58{fill:#fff}.cls-61{fill:#bfcafa}.cls-62{fill:#00e290}.cls-63{stroke:#00e290}</style></defs><g id="Group_3493" data-name="Group 3493" transform="translate(-1141.043 713.734)"><g id="Group_3490" data-name="Group 3490" transform="translate(1187.751 -713.734)"><path id="Rectangle_926" d="M0 0h258.609v212.667H0z" data-name="Rectangle 926" transform="translate(23.093 174.55)" fill="url(#linear-gradient)"/><path id="Rectangle_927" d="M0 0h132.357v212.667H0z" data-name="Rectangle 927" transform="translate(86.219 174.55)" fill="url(#linear-gradient-2)"/><path id="Path_3190" d="M1407.828-526.339h-129.337l-64.668 8.983 64.668 8.983h129.337l64.668-8.983z" data-name="Path 3190" transform="translate(-1190.703 691.848)" fill="url(#linear-gradient-3)"/><path id="Rectangle_928" d="M0 0h258.609v248.089H0z" data-name="Rectangle 928" transform="translate(238.327 261.253)" fill="url(#linear-gradient-4)"/><path id="Rectangle_929" d="M0 0h132.357v248.089H0z" data-name="Rectangle 929" transform="translate(301.453 261.253)" fill="url(#linear-gradient-5)"/><path id="Path_3191" d="M1650.543-428.463h-129.337l-64.668 8.983 64.668 8.983h129.337l64.669-8.983z" data-name="Path 3191" transform="translate(-1218.184 680.766)" fill="url(#linear-gradient-6)"/><path id="Rectangle_930" d="M0 0h258.609v206.907H0z" data-name="Rectangle 930" transform="translate(0 340.274)" fill="url(#linear-gradient-7)"/><path id="Rectangle_931" d="M0 0h132.357v204.907H0z" data-name="Rectangle 931" transform="translate(63.126 340.274)" fill="url(#linear-gradient-8)"/><path id="Path_3192" d="M1381.786-339.353h-129.337l-64.668 8.983 64.668 8.983h129.337l64.668-8.983z" data-name="Path 3192" transform="translate(-1187.754 670.677)" fill="url(#linear-gradient-9)"/><path id="Path_3193" d="M1368.033-475.742c5.711 5.676 8.529 12.894 5.8 15.635s-9.958-.034-15.669-5.711-8.076-12.443-5.352-15.184 9.509-.417 15.221 5.26z" class="cls-10" data-name="Path 3193" transform="translate(-1206.313 686.845)"/><g id="Group_3448" data-name="Group 3448" transform="translate(138.965 196.811)"><g id="Group-24"><path id="Rectangle_932" d="M0 0h1.606v26.3H0z" class="cls-12" data-name="Rectangle 932" transform="rotate(-44.52 24.115 -7.517)"/><path id="Path_3196" d="M1388.954-463.735c-5.712 5.677-8.53 12.895-5.806 15.635s9.958-.034 15.669-5.71 8.076-12.444 5.352-15.184-9.504-.417-15.215 5.259z" class="cls-10" data-name="Path 3196" transform="translate(-1348.721 488.674)"/><path id="Rectangle_933" d="M0 0h26.676v1.606H0z" class="cls-12" data-name="Rectangle 933" transform="rotate(-45.41 67.163 -15.315)"/><path id="Path_3197" d="M1384.039-336.712h-16.516a23.019 23.019 0 01-23.064-22.838v-47.03h62.641v47.03a23.019 23.019 0 01-23.064 22.838" data-name="Path 3197" transform="translate(-1344.459 481.477)" fill="url(#linear-gradient-12)" fill-rule="evenodd"/><path id="Rectangle_934" d="M0 0h62.645v3.485H0z" class="cls-14" data-name="Rectangle 934" transform="translate(0 96.376)"/><path id="Rectangle_935" d="M0 0h62.645v3.485H0z" class="cls-14" data-name="Rectangle 935" transform="translate(0 115.447)"/><path id="Rectangle_936" d="M0 0h1.606v75.048H0z" class="cls-12" data-name="Rectangle 936" transform="translate(30.52)"/></g></g><ellipse id="Ellipse_100" cx="31.343" cy="1.85" data-name="Ellipse 100" rx="31.343" ry="1.85" transform="translate(138.949 270.085)" fill="url(#linear-gradient-12)"/><g id="Group_3466" data-name="Group 3466" transform="translate(65.582 38.205)"><path id="Rectangle_937" d="M0 0h29.905v54.602H0z" data-name="Rectangle 937" transform="translate(72.191 78.388)" fill="url(#linear-gradient-14)"/><path id="Rectangle_938" d="M0 0h174.287v111.622H0z" data-name="Rectangle 938" fill="url(#linear-gradient-15)"/><g id="Group_3465" data-name="Group 3465" transform="translate(7.694 8.251)"><g id="Group_3462" data-name="Group 3462" opacity=".7"><path id="Rectangle_939" d="M0 0h158.899v95.23H0z" data-name="Rectangle 939" fill="#0e131c"/><path id="Rectangle_940" d="M0 0h158.899v1.098H0z" data-name="Rectangle 940" transform="translate(0 6.719)" fill="#3c547c"/><path id="Rectangle_941" d="M0 0h108.403v29.639H0z" class="cls-14" data-name="Rectangle 941" transform="translate(25.248 62.572)"/><g id="Group_3453" data-name="Group 3453" transform="translate(2.196 1.921)"><circle id="Ellipse_103" cx="1.509" cy="1.509" r="1.509" class="cls-21" data-name="Ellipse 103"/><circle id="Ellipse_104" cx="1.509" cy="1.509" r="1.509" class="cls-21" data-name="Ellipse 104" transform="translate(5.489)"/><circle id="Ellipse_105" cx="1.509" cy="1.509" r="1.509" class="cls-21" data-name="Ellipse 105" transform="translate(10.978)"/></g><g id="Group_3459" class="cls-22" data-name="Group 3459" transform="translate(3.293 13.173)"><g id="Group_3456" class="cls-23" data-name="Group 3456" transform="translate(134.199)"><g id="Group_3454" data-name="Group 3454"><path id="Rectangle_942" d="M0 0h10.155v2.195H0z" class="cls-24" data-name="Rectangle 942"/><path id="Rectangle_943" d="M0 0h7.959v2.195H0z" class="cls-24" data-name="Rectangle 943" transform="translate(0 5.489)"/><path id="Rectangle_944" d="M0 0h9.331v2.195H0z" class="cls-24" data-name="Rectangle 944" transform="translate(0 10.978)"/><path id="Rectangle_945" d="M0 0h5.764v2.195H0z" class="cls-24" data-name="Rectangle 945" transform="translate(0 16.466)"/><path id="Rectangle_946" d="M0 0h7.959v2.195H0z" class="cls-24" data-name="Rectangle 946" transform="translate(0 21.955)"/><path id="Rectangle_947" d="M0 0h9.331v2.195H0z" class="cls-24" data-name="Rectangle 947" transform="translate(0 27.444)"/><path id="Rectangle_948" d="M0 0h10.155v2.195H0z" class="cls-24" data-name="Rectangle 948" transform="translate(0 32.933)"/><path id="Rectangle_949" d="M0 0h7.959v2.195H0z" class="cls-24" data-name="Rectangle 949" transform="translate(0 38.421)"/><path id="Rectangle_950" d="M0 0h9.331v2.195H0z" class="cls-24" data-name="Rectangle 950" transform="translate(0 43.91)"/><path id="Rectangle_951" d="M0 0h5.764v2.195H0z" class="cls-24" data-name="Rectangle 951" transform="translate(0 49.399)"/><path id="Rectangle_952" d="M0 0h7.959v2.195H0z" class="cls-24" data-name="Rectangle 952" transform="translate(0 54.887)"/><path id="Rectangle_953" d="M0 0h9.331v2.195H0z" class="cls-24" data-name="Rectangle 953" transform="translate(0 60.377)"/><path id="Rectangle_954" d="M0 0h10.155v2.195H0z" class="cls-24" data-name="Rectangle 954" transform="translate(0 65.865)"/><path id="Rectangle_955" d="M0 0h7.959v2.195H0z" class="cls-24" data-name="Rectangle 955" transform="translate(0 71.354)"/><path id="Rectangle_956" d="M0 0h9.331v2.195H0z" class="cls-24" data-name="Rectangle 956" transform="translate(0 76.842)"/></g><g id="Group_3455" data-name="Group 3455" transform="translate(16.631)"><path id="Rectangle_957" d="M0 0h2.419v2.195H0z" class="cls-25" data-name="Rectangle 957"/><path id="Rectangle_958" d="M0 0h1.28v2.195H0z" class="cls-25" data-name="Rectangle 958" transform="translate(1.139 5.489)"/><path id="Rectangle_959" d="M0 0h1.992v2.195H0z" class="cls-25" data-name="Rectangle 959" transform="translate(.427 10.978)"/><path id="Rectangle_960" d="M0 0h1.565v2.195H0z" class="cls-25" data-name="Rectangle 960" transform="translate(.854 16.466)"/><path id="Rectangle_961" d="M0 0h1.28v2.195H0z" class="cls-25" data-name="Rectangle 961" transform="translate(1.139 21.955)"/><path id="Rectangle_962" d="M0 0h1.992v2.195H0z" class="cls-25" data-name="Rectangle 962" transform="translate(.427 27.444)"/><path id="Rectangle_963" d="M0 0h2.419v2.195H0z" class="cls-25" data-name="Rectangle 963" transform="translate(0 32.933)"/><path id="Rectangle_964" d="M0 0h1.28v2.195H0z" class="cls-25" data-name="Rectangle 964" transform="translate(1.139 38.421)"/><path id="Rectangle_965" d="M0 0h1.992v2.195H0z" class="cls-25" data-name="Rectangle 965" transform="translate(.427 43.91)"/><path id="Rectangle_966" d="M0 0h1.565v2.195H0z" class="cls-25" data-name="Rectangle 966" transform="translate(.854 49.399)"/><path id="Rectangle_967" d="M0 0h1.28v2.195H0z" class="cls-25" data-name="Rectangle 967" transform="translate(1.139 54.887)"/><path id="Rectangle_968" d="M0 0h1.992v2.195H0z" class="cls-25" data-name="Rectangle 968" transform="translate(.427 60.377)"/><path id="Rectangle_969" d="M0 0h2.419v2.195H0z" class="cls-25" data-name="Rectangle 969" transform="translate(0 65.865)"/><path id="Rectangle_970" d="M0 0h1.28v2.195H0z" class="cls-25" data-name="Rectangle 970" transform="translate(1.139 71.354)"/><path id="Rectangle_971" d="M0 0h1.992v2.195H0z" class="cls-25" data-name="Rectangle 971" transform="translate(.427 76.842)"/></g></g><g id="Group_3458" class="cls-23" data-name="Group 3458"><path id="Rectangle_972" d="M0 0h10.154v2.195H0z" class="cls-24" data-name="Rectangle 972"/><path id="Rectangle_973" d="M0 0h7.958v2.195H0z" class="cls-24" data-name="Rectangle 973" transform="translate(0 5.489)"/><path id="Rectangle_974" d="M0 0h9.33v2.195H0z" class="cls-24" data-name="Rectangle 974" transform="translate(0 10.978)"/><path id="Rectangle_975" d="M0 0h5.763v2.195H0z" class="cls-24" data-name="Rectangle 975" transform="translate(0 16.466)"/><path id="Rectangle_976" d="M0 0h7.958v2.195H0z" class="cls-24" data-name="Rectangle 976" transform="translate(0 21.955)"/><path id="Rectangle_977" d="M0 0h9.33v2.195H0z" class="cls-24" data-name="Rectangle 977" transform="translate(0 27.444)"/><path id="Rectangle_978" d="M0 0h10.154v2.195H0z" class="cls-24" data-name="Rectangle 978" transform="translate(0 32.933)"/><path id="Rectangle_979" d="M0 0h9.33v2.195H0z" class="cls-26" data-name="Rectangle 979" transform="translate(0 43.91)"/><path id="Rectangle_980" d="M0 0h5.763v2.195H0z" class="cls-26" data-name="Rectangle 980" transform="translate(0 49.399)"/><path id="Rectangle_981" d="M0 0h7.958v2.195H0z" class="cls-26" data-name="Rectangle 981" transform="translate(0 54.887)"/><path id="Rectangle_982" d="M0 0h9.33v2.195H0z" class="cls-26" data-name="Rectangle 982" transform="translate(0 60.377)"/><path id="Rectangle_983" d="M0 0h10.154v2.195H0z" class="cls-26" data-name="Rectangle 983" transform="translate(0 65.865)"/><path id="Rectangle_984" d="M0 0h7.958v2.195H0z" class="cls-26" data-name="Rectangle 984" transform="translate(0 71.354)"/><path id="Rectangle_985" d="M0 0h9.33v2.195H0z" class="cls-26" data-name="Rectangle 985" transform="translate(0 76.842)"/><g id="Group_3457" data-name="Group 3457" transform="translate(16.631)"><path id="Rectangle_986" d="M0 0h2.42v2.195H0z" class="cls-25" data-name="Rectangle 986"/><path id="Rectangle_987" d="M0 0h1.281v2.195H0z" class="cls-25" data-name="Rectangle 987" transform="translate(1.139 5.489)"/><path id="Rectangle_988" d="M0 0h1.993v2.195H0z" class="cls-25" data-name="Rectangle 988" transform="translate(.427 10.978)"/><path id="Rectangle_989" d="M0 0h1.566v2.195H0z" class="cls-25" data-name="Rectangle 989" transform="translate(.854 16.466)"/><path id="Rectangle_990" d="M0 0h1.281v2.195H0z" class="cls-25" data-name="Rectangle 990" transform="translate(1.139 21.955)"/><path id="Rectangle_991" d="M0 0h1.993v2.195H0z" class="cls-25" data-name="Rectangle 991" transform="translate(.427 27.444)"/><path id="Rectangle_992" d="M0 0h2.42v2.195H0z" class="cls-25" data-name="Rectangle 992" transform="translate(0 32.933)"/><path id="Rectangle_993" d="M0 0h1.993v2.195H0z" class="cls-25" data-name="Rectangle 993" transform="translate(.427 43.91)"/><path id="Rectangle_994" d="M0 0h1.566v2.195H0z" class="cls-25" data-name="Rectangle 994" transform="translate(.854 49.399)"/><path id="Rectangle_995" d="M0 0h1.281v2.195H0z" class="cls-25" data-name="Rectangle 995" transform="translate(1.139 54.887)"/><path id="Rectangle_996" d="M0 0h1.993v2.195H0z" class="cls-25" data-name="Rectangle 996" transform="translate(.427 60.377)"/><path id="Rectangle_997" d="M0 0h2.42v2.195H0z" class="cls-25" data-name="Rectangle 997" transform="translate(0 65.865)"/><path id="Rectangle_998" d="M0 0h1.281v2.195H0z" class="cls-25" data-name="Rectangle 998" transform="translate(1.139 71.354)"/><path id="Rectangle_999" d="M0 0h1.993v2.195H0z" class="cls-25" data-name="Rectangle 999" transform="translate(.427 76.842)"/></g></g></g><g id="Group_3460" data-name="Group 3460" transform="translate(29.091 68.609)"><path id="Rectangle_1000" d="M0 0h46.654v3.293H0z" data-name="Rectangle 1000" transform="translate(0 16.74)" fill="#5dc98d" opacity=".7"/><path id="Rectangle_1001" d="M0 0h46.654v3.293H0z" class="cls-28" data-name="Rectangle 1001" transform="translate(0 11.16)"/><path id="Rectangle_1002" d="M0 0h46.654v3.293H0z" class="cls-28" data-name="Rectangle 1002" transform="translate(0 5.58)"/><path id="Rectangle_1003" d="M0 0h46.654v3.293H0z" class="cls-28" data-name="Rectangle 1003"/></g><g id="Group_3461" data-name="Group 3461" transform="translate(81.783 68.609)"><path id="Rectangle_1004" d="M0 0h46.654v3.293H0z" data-name="Rectangle 1004" transform="translate(0 16.74)" opacity=".2" fill="#ce2b28"/><path id="Rectangle_1005" d="M0 0h46.654v3.293H0z" class="cls-28" data-name="Rectangle 1005" transform="translate(0 11.16)"/><path id="Rectangle_1006" d="M0 0h46.654v3.293H0z" class="cls-28" data-name="Rectangle 1006" transform="translate(0 5.58)"/><path id="Rectangle_1007" d="M0 0h46.654v3.293H0z" class="cls-28" data-name="Rectangle 1007"/></g></g><g id="Group_3464" data-name="Group 3464" transform="translate(25.248 12.899)"><path id="Rectangle_1008" d="M0 0h108.403v46.654H0z" class="cls-14" data-name="Rectangle 1008"/><path id="Rectangle_1009" d="M0 0h27.443v.549H0z" class="cls-30" data-name="Rectangle 1009" transform="translate(3.842 20.857)"/><path id="Rectangle_1010" d="M0 0h74.099v.549H0z" class="cls-30" data-name="Rectangle 1010" transform="translate(17.564 26.346)"/><g id="Group_3463" data-name="Group 3463" transform="translate(4.116 15.643)"><path id="Rectangle_1011" d="M0 0h2.196v4.94H0z" class="cls-31" data-name="Rectangle 1011" transform="translate(0 16.466)"/><path id="Rectangle_1012" d="M0 0h2.196v4.94H0z" class="cls-31" data-name="Rectangle 1012" transform="translate(5.489 13.722)"/><path id="Rectangle_1013" d="M0 0h2.196v2.196H0z" class="cls-32" data-name="Rectangle 1013" transform="translate(10.978 16.466)"/><path id="Rectangle_1014" d="M0 0h2.196v10.429H0z" class="cls-31" data-name="Rectangle 1014" transform="translate(16.467 10.978)"/><path id="Rectangle_1015" d="M0 0h2.196v4.94H0z" class="cls-31" data-name="Rectangle 1015" transform="translate(21.955 13.722)"/><path id="Rectangle_1016" d="M0 0h2.196v4.94H0z" class="cls-31" data-name="Rectangle 1016" transform="translate(98.798 8.233)"/><path id="Rectangle_1017" d="M0 0h2.196v13.173H0z" class="cls-31" data-name="Rectangle 1017" transform="translate(82.332)"/><path id="Rectangle_1018" d="M0 0h2.196v4.94H0z" class="cls-31" data-name="Rectangle 1018" transform="translate(87.82 5.489)"/><path id="Rectangle_1019" d="M0 0h2.196v4.94H0z" class="cls-31" data-name="Rectangle 1019" transform="translate(65.866 10.978)"/><path id="Rectangle_1020" d="M0 0h2.196v10.428H0z" class="cls-31" data-name="Rectangle 1020" transform="translate(71.354 5.489)"/><path id="Rectangle_1021" d="M0 0h2.196v4.94H0z" class="cls-31" data-name="Rectangle 1021" transform="translate(76.843 8.233)"/><path id="Rectangle_1022" d="M0 0h2.196v2.196H0z" class="cls-32" data-name="Rectangle 1022" transform="translate(27.444 16.466)"/><path id="Rectangle_1023" d="M0 0h2.196v2.195H0z" class="cls-31" data-name="Rectangle 1023" transform="translate(32.933 11.252)"/><path id="Rectangle_1024" d="M0 0h2.196v4.94H0z" class="cls-31" data-name="Rectangle 1024" transform="translate(38.421 8.508)"/><path id="Rectangle_1025" d="M0 0h2.196v2.195H0z" class="cls-32" data-name="Rectangle 1025" transform="translate(43.91 10.978)"/><path id="Rectangle_1026" d="M0 0h2.196v11.252H0z" class="cls-31" data-name="Rectangle 1026" transform="translate(49.399 10.154)"/><path id="Rectangle_1027" d="M0 0h2.196v11.252H0z" class="cls-31" data-name="Rectangle 1027" transform="translate(54.887 7.41)"/><path id="Rectangle_1028" d="M0 0h2.196v2.196H0z" class="cls-32" data-name="Rectangle 1028" transform="translate(60.377 16.466)"/><path id="Rectangle_1029" d="M0 0h2.196v2.195H0z" class="cls-32" data-name="Rectangle 1029" transform="translate(93.309 8.233)"/></g><circle id="Ellipse_106" cx="2.744" cy="2.744" r="2.744" data-name="Ellipse 106" transform="translate(3.842 3.568)" fill="#ef9236"/><path id="Rectangle_1030" d="M0 0h32.933v2.744H0z" data-name="Rectangle 1030" transform="translate(14.819 4.94)" fill="gray" opacity=".8"/></g></g></g><g id="Group_3467" data-name="Group 3467" transform="translate(425.934 171.38)"><path id="Path_3218" d="M1699.818-511.463l.68 7.4-2.269.127-1.715-.616.672-4.248z" class="cls-35" data-name="Path 3218" transform="translate(-1671.289 518.783)"/><path id="Path_3219" d="M1677.89-420.5l.836 4.381-10.658-.26 6.755-4.778z" class="cls-36" data-name="Path 3219" transform="translate(-1668.069 508.558)"/><path id="Path_3220" d="M1705.527-421.149l.771 4.214-8.29.562 5.3-4.385z" class="cls-36" data-name="Path 3220" transform="translate(-1671.458 508.557)"/><path id="Path_3221" d="M1703.289-468.183l.954 18.467-4.541 1.4-4.787-18.18z" class="cls-35" data-name="Path 3221" transform="translate(-1671.108 513.883)"/><path id="Path_3222" d="M1704.637-449.325l1.9 8.874-.7 13.929-2.495.524-3.342-21.953z" class="cls-35" data-name="Path 3222" transform="translate(-1671.685 511.748)"/><path id="Path_3223" d="M1693.642-462.361l-7.3 17.1-4.947-.746 2.656-19.348z" class="cls-35" data-name="Path 3223" transform="translate(-1669.577 513.563)"/><path id="Path_3224" d="M1699.781-502.172l.583 4.366-4.84-.834-11.955-2.753-5.719-11.691 2.1.143 6.778 8.957z" class="cls-35" data-name="Path 3224" transform="translate(-1669.176 518.967)"/><path id="Path_3225" d="M1698.815-503.472l1.527 2.738 1.514 6.352-2.994 12.339 2.6 6.206 1.471 11.971-21.039-2.94 6.61-14.761-1.648-15.81 6.761-6.543z" class="cls-37" data-name="Path 3225" transform="translate(-1669.634 517.929)"/><path id="Path_3226" d="M1686.22-444.69l-1.573 8.955-6.047 12.415-2.624-.632 5.224-21.548z" class="cls-35" data-name="Path 3226" transform="translate(-1668.964 511.314)"/><path id="Path_3227" d="M1694.754-512.817l.5-.2 1.017-3.863 1.466-1.556 3.665 2.065.781 1.482-1.71 2.719-1.282 2.815-4.049.772.072-3.564z" class="cls-35" data-name="Path 3227" transform="translate(-1671.09 519.573)"/><path id="Path_3228" d="M1677.929-512.888l-1.193-.982-.575-1.792.857.008-.674-2.366 2.711.636.933 3.1-.109.987z" class="cls-35" data-name="Path 3228" transform="translate(-1668.985 519.526)"/><path id="Path_3229" d="M1696.774-517.351l2.38 1.445.328 3.8.58 2.38.166 1.361 4.491-4.062.976-4.039-3.372-2.8-4.872.724z" class="cls-37" data-name="Path 3229" transform="translate(-1671.319 519.667)"/><path id="Path_3230" d="M1699.615-512.484l.9-.3.361 1.06-1.283 1.247z" class="cls-35" data-name="Path 3230" transform="translate(-1671.637 518.933)"/><path id="Path_3231" d="M1705.58-515.812l6.057-3.906 4.572 4.753-2.291 12.245-8.364-12.553z" class="cls-37" data-name="Path 3231" transform="translate(-1672.313 519.718)"/><path id="Path_3232" d="M1678.753-421.048l-3.067-.657 1.29-4.31 3.2 1.6z" class="cls-35" data-name="Path 3232" transform="translate(-1668.931 509.108)"/><path id="Path_3233" d="M1706.109-421.611l-2.109.411-.55-3.561 2.857-.217z" class="cls-35" data-name="Path 3233" transform="translate(-1672.074 508.991)"/><path id="Path_3234" d="M1696.713-505.351l2.11-2.8-1.737.4z" class="cls-38" data-name="Path 3234" transform="translate(-1671.312 518.408)"/><path id="Path_3235" d="M1706.835-516.517l4.947-3.2 4.572 4.753-1.391 7.438.586-7.266-3.752-3.957z" class="cls-39" data-name="Path 3235" transform="translate(-1672.458 519.718)"/><path id="Path_3236" d="M1696.774-517.351l.677-1.193 4.872-.724 3.372 2.8-3.451-2.191-4.468.422z" class="cls-39" data-name="Path 3236" transform="translate(-1671.319 519.667)"/><path id="Path_3237" d="M1698.925-515.657l-1.975-1.2-.356-.216-.325.345-1.017 3.863-.5.2.458.669-.161-.521.373-.187 1.255-3.693z" class="cls-40" data-name="Path 3237" transform="translate(-1671.09 519.418)"/><path id="Path_3238" d="M1689.779-502.858l-2.1-.291-2.075-2.654 1.431 3.277z" class="cls-38" data-name="Path 3238" transform="translate(-1670.054 518.142)"/><path id="Path_3239" d="M1702.93-463.242l-1.471-11.971-5.736-5.669-7.154-17.531-1.715 1.66 1.648 15.81-6.61 14.761z" class="cls-14" data-name="Path 3239" transform="translate(-1669.634 517.306)"/><path id="Path_3240" d="M1693.39-500.172l3.256-.529.646 3.473-7.215 13.817-12.483-4.257.372-2.011 10.167 2.1z" class="cls-35" data-name="Path 3240" transform="translate(-1669.147 517.565)"/><path id="Path_3241" d="M1677.351-488.443l-1.106-1.116-1.9-.447.068.849-2.508-.507.852 2.645 3.287.713 1.019-.176z" class="cls-35" data-name="Path 3241" transform="translate(-1668.502 516.354)"/><path id="Path_3242" d="M1689.478-486.306l1 .562.326-3.746z" class="cls-38" data-name="Path 3242" transform="translate(-1670.493 516.295)"/><path id="Path_3243" d="M1695.112-503.92l5.2.448 1.653 2.858 1.388 6.232-2.02-6.213z" class="cls-39" data-name="Path 3243" transform="translate(-1671.131 517.929)"/><path id="Path_3244" d="M1700.887-508.057l4.3-3.887.453-1.876 5.957 8.941-6.139-10.126-1.158 2.705z" class="cls-14" data-name="Path 3244" transform="translate(-1671.784 519.184)"/><path id="Path_3245" d="M1689.664-451.981l-5.769-9.806 9.4 1.313z" class="cls-38" data-name="Path 3245" transform="translate(-1669.861 513.159)"/><path id="Path_3246" d="M1696.566-460.017l7.8 8.861-.458-7.835z" class="cls-38" data-name="Path 3246" transform="translate(-1671.295 512.958)"/></g><g id="Group_3471" data-name="Group 3471" transform="translate(307.687 155.784)"><g id="Group_3470" data-name="Group 3470"><g id="Group_3469" data-name="Group 3469"><path id="Path_3247" d="M1538.219-423.35l-1.11 4.746 11.4-.069-5.839-4.665-.629-1.116z" class="cls-36" data-name="Path 3247" transform="translate(-1534.994 524.528)"/><path id="Path_3248" d="M1548.776-507.066l10.754-4.854.848 1.7-7.557 7.652z" class="cls-37" data-name="Path 3248" transform="translate(-1536.315 534.432)"/><path id="Path_3249" d="M1539.531-476.254l.358 24.96-2.043 5.652.476 16.469 3.785-1.178 6.2-41.962s-2.948-5.096-8.776-3.941z" class="cls-41" data-name="Path 3249" transform="translate(-1535.077 530.413)"/><path id="Path_3250" d="M1538.25-516.873l-3.526 9.6 4.211 17.005.882 3.564 13.321-.588-1.371-21.94-4.7-8.619z" class="cls-37" data-name="Path 3250" transform="translate(-1534.724 535.103)"/><path id="Path_3251" d="M1542.422-526.84l-.367-3.242 3.178-3.526 5.255 1.272-.513 5.412-1.913 4.863-5.062-1.555z" class="cls-35" data-name="Path 3251" transform="translate(-1535.554 536.887)"/><path id="Path_3254" d="M1543.945-421.645l-.953 4.417 11.4-.069-5.839-4.665-.456-1.318z" class="cls-36" data-name="Path 3254" transform="translate(-1535.66 524.395)"/><path id="Path_3255" d="M1540.045-517.7l2.386-6.987 3.911 3.193.793 2.949-3.3.784z" class="cls-35" data-name="Path 3255" transform="translate(-1535.326 535.878)"/><path id="Path_3256" d="M1545.57-527.807l-1 1.515-2.192.6-.387-4.552-.483-2.009.163-2.81 6.972 1.065-.525 3.125z" class="cls-37" data-name="Path 3256" transform="translate(-1535.492 537.052)"/><path id="Path_3257" d="M1548.219-533.136l2.282.465.242-2.261-3.246-2.374-5.765 1.954.549 2.988z" class="cls-37" data-name="Path 3257" transform="translate(-1535.517 537.306)"/><path id="Path_3258" d="M1547.189-528.586l-.9-.975-.928 1.114.6 1.64z" class="cls-35" data-name="Path 3258" transform="translate(-1535.928 536.429)"/><path id="Path_3259" d="M1547.515-518.182l-7.1-2.578-1.715 3.56 3.734.279z" class="cls-37" data-name="Path 3259" transform="translate(-1535.174 535.433)"/><path id="Path_3260" d="M1568.565-506.494l-11.5-1.781 12.946-7.495 11.074 1.239z" class="cls-43" data-name="Path 3260" transform="translate(-1537.253 534.867)"/><path id="Path_3261" d="M1546.994-521.227l-1.707-1.61 2.223 3.682z" class="cls-38" data-name="Path 3261" transform="translate(-1535.92 535.668)"/><path id="Path_3262" d="M1542.381-525.948l-.386-4.891-.483-1.67.2-2.842 5.765-1.954 3.245 2.374-3.416-1.744s-4.6 1.68-4.657 1.841-.388 2.471-.388 2.471l-.006 1.468z" class="cls-44" data-name="Path 3262" transform="translate(-1535.492 537.306)"/><path id="Path_3263" d="M1542.508-524.472l.2 3.292 4.494 2.356-5.889-2.139z" class="cls-40" data-name="Path 3263" transform="translate(-1535.469 535.853)"/><path id="Path_3264" d="M1540.386-486.369l-.64-7.332 6.742-3.16 2.581-18.025 3.267 5.989 1.371 21.94z" class="cls-14" data-name="Path 3264" transform="translate(-1535.292 534.768)"/><path id="Path_3265" d="M1549.481-514.887l-4.644 1.545-1.448 8.949 12.14 12.07 1.455-8.153z" class="cls-37" data-name="Path 3265" transform="translate(-1535.705 534.768)"/><path id="Path_3266" d="M1567.408-504.363l.355-1.962 1.631-1.7.518 1.007 2.2-2.152.961 3.539-2.855 2.876-1.159.441z" class="cls-35" data-name="Path 3266" transform="translate(-1538.424 534.121)"/><path id="Path_3267" d="M1558.017-498.974l-.938 7.932 11.8-10.989-2.582-1.549z" class="cls-37" data-name="Path 3267" transform="translate(-1537.255 533.487)"/><path id="Path_3268" d="M1547.065-518.182l-7.1-2.578-1.759 3.674-3.483 9.483 5.84-11.628z" class="cls-44" data-name="Path 3268" transform="translate(-1534.724 535.433)"/><path id="Path_3269" d="M1558.217-499.6l-2.035 1.489-1.9-9.041z" class="cls-14" data-name="Path 3269" transform="translate(-1536.939 533.892)"/><path id="Path_3270" d="M1561.849-510.372l1.432.121 1.492-.816-.6-.549 1.911-1.131-2.283-1.332-2.536 1.448-.524.724z" class="cls-35" data-name="Path 3270" transform="translate(-1537.669 534.676)"/><path id="Path_3271" d="M1541.58-474.683l2.436 22.529-2.4 7.71.909 14.265 6.2-41.962s-1.317-3.697-7.145-2.542z" class="cls-14" data-name="Path 3271" transform="translate(-1535.5 530.241)"/><path id="Path_3272" d="M1553.707-483.391l2.334 6.519-4.428 26.71-6.673-.354.986-21.209-6.18-5.317.64-5.761z" class="cls-41" data-name="Path 3272" transform="translate(-1535.292 531.202)"/><path id="Path_3273" d="M1545.4-446.327l-1.947 5.184.545 16.889 4.154-1.634 3.89-20.278z" class="cls-41" data-name="Path 3273" transform="translate(-1535.712 527.005)"/><g id="Group_3468" data-name="Group 3468" transform="translate(27.949 21.753)"><path id="Path_3274" d="M1568.221-512.327l-1.979 1.146 1.759.272 1.914-1.229z" class="cls-45" data-name="Path 3274" transform="translate(-1566.241 512.725)"/><path id="Path_3275" d="M1573.215-512.161l-1.649-.166-.74.428h-.006l-1.979 1.146 1.759.272.768-.493z" class="cls-45" data-name="Path 3275" transform="translate(-1566.536 512.725)"/><path id="Path_3276" d="M1577.1-512.676l-1.539-.1-1.427.826-.74.429h-.006l-1.979 1.146 1.759.272.768-.493 1.848-1.186h-.019z" class="cls-45" data-name="Path 3276" transform="translate(-1566.826 512.776)"/></g></g><path id="Path_3277" d="M1540.467-482.8l9.388 11.225 1.839 21.416 4.428-26.71-2.334-6.519z" class="cls-14" data-name="Path 3277" transform="translate(-1535.374 531.202)"/></g><path id="Path_3278" d="M1541.576-519.788l1.4 3.7-2.688-3.1z" class="cls-44" data-name="Path 3278" transform="translate(-1535.354 535.323)"/></g><g id="Group_3472" data-name="Group 3472" transform="translate(123.306 227.149)"><path id="Path_3279" d="M1346.868-428.486l-3.027 7.226-10.425 5.885-1.615-1.344s9.53-7.715 9.547-7.805 1.513-4.9 1.513-4.9z" class="cls-35" data-name="Path 3279" transform="translate(-1327.367 453.725)"/><path id="Path_3280" d="M1331.333-415.2l-2.246.081-1.646 1.427.344.526-.984 1.575 1.813 1.524 3.268-1.175 1.224-2.829z" class="cls-35" data-name="Path 3280" transform="translate(-1326.801 452.115)"/><path id="Path_3281" d="M1348.1-440.076l2.636 3.848-2.2 7.9-5.889-1.64 3.092-7.753z" class="cls-37" data-name="Path 3281" transform="translate(-1328.595 454.931)"/><path id="Path_3282" d="M1348.1-440.076l2.636 3.848-2.2 7.9-5.889-1.64 3.092-7.753z" class="cls-14" data-name="Path 3282" transform="translate(-1328.595 454.931)"/><path id="Path_3283" d="M1345.244-445s1.983 5.143 2.151 5.143 4.808-3.645 4.808-3.645l-4.936-4.607z" class="cls-35" data-name="Path 3283" transform="translate(-1328.89 455.841)"/><path id="Path_3284" d="M1341.214-447.69l1.927 4.286s2.273-.739 2.366-.792 2.189-3.759 2.189-3.759l.017-3.722s-1.525-2.486-1.614-2.515-5.92 1.186-5.92 1.186z" class="cls-35" data-name="Path 3284" transform="translate(-1328.316 456.53)"/><path id="Path_3285" d="M1352.271-445.188l-6.14 5.395 5.74 21.139 21.929-.114-13.241-20.28z" class="cls-37" data-name="Path 3285" transform="translate(-1328.99 455.51)"/><path id="Path_3286" d="M1372.444-415.424l-2.793 9.473-6.983 1.177s-7.539.016-8.058.016c-.367 0-15.757-3.4-15.757-3.4l-2.278 2.792-2.793-.7 5-9.222z" class="cls-37" data-name="Path 3286" transform="translate(-1327.592 452.14)"/><path id="Path_3287" d="M1337.7-406.728l-2.615.264-1.813 1.789.441.588-1.029 1.911 2.23 1.642 3.724-1.617 1.214-3.392z" class="cls-35" data-name="Path 3287" transform="translate(-1327.467 451.156)"/><path id="Path_3288" d="M1340.28-452.591l4.292-1.234.819 2.816.946.939.559.816.761 1 .43-3.967-1.191-3.327-2.495-1.28-4.419 1.86-.136 1.587z" class="cls-37" data-name="Path 3288" transform="translate(-1328.278 456.828)"/><path id="Path_3289" d="M1346.762-449.509c.087-.153.662-1.328.662-1.328l.948.975-.877 1.778z" class="cls-38" data-name="Path 3289" transform="translate(-1329.061 456.15)"/><path id="Path_3290" d="M1349.04-418.436l6.262-17.592 9.871 4.222 8.758 14.31h-25.893z" class="cls-14" data-name="Path 3290" transform="translate(-1329.206 454.473)"/><path id="Path_3291" d="M1339.417-415.266l23.889 10.509 6.983-1.176 2.717-9.212z" class="cls-14" data-name="Path 3291" transform="translate(-1328.23 452.122)"/><path id="Path_3292" d="M1353.013-425.763l-1.866 8.968-10.654 9.075-2.152-1.183s9.219-10.977 9.219-11.085.645-5.955.645-5.955z" class="cls-35" data-name="Path 3292" transform="translate(-1328.108 453.331)"/><path id="Path_3293" d="M1352.194-442.915l3.109 6.509v10.019h-7.264v-13.291z" class="cls-37" data-name="Path 3293" transform="translate(-1329.206 455.253)"/><path id="Path_3294" d="M1348.038-426.387v-13.291l4.156-3.237-3.178 3.645s1.319 1.086 1.1.929a3.539 3.539 0 00-1.1-.2z" class="cls-44" data-name="Path 3294" transform="translate(-1329.206 455.253)"/><path id="Path_3295" d="M1345.939-443.265l.337-.078 1.836-3.346-1.352 5.462z" class="cls-38" data-name="Path 3295" transform="translate(-1328.968 455.68)"/><path id="Path_3296" d="M1340-454.968l4.419-1.86 2.709 1.389-2.7-.711z" class="cls-44" data-name="Path 3296" transform="translate(-1328.296 456.828)"/><path id="Path_3297" d="M1340.335-452.05l.9 4.6 1.927 4.286-1.412-4.444z" class="cls-40" data-name="Path 3297" transform="translate(-1328.334 456.287)"/><path id="Path_3298" d="M1348.424-419.227l1.591.549-4.041 2.446z" class="cls-38" data-name="Path 3298" transform="translate(-1328.972 452.571)"/><path id="Path_3299" d="M1342.232-423.9l1.289.893s-4.009 1.366-3.915 1.288l2.626-2.181z" class="cls-38" data-name="Path 3299" transform="translate(-1328.251 453.1)"/></g><path id="Rectangle_1031" d="M0 0h1.606v20.221H0z" class="cls-12" data-name="Rectangle 1031" transform="translate(377.813 236.582)"/><path id="Path_3300" d="M1569.424-452.839c0 3.14 17.971 5.685 40.141 5.685s40.141-2.545 40.141-5.685c0-.392.263-1.461-.271-1.831-3.743-2.591-20.471-3.854-39.87-3.854-19.3 0-35.934.966-39.785 3.536-.573.383-.356 1.743-.356 2.149z" data-name="Path 3300" transform="translate(-1230.961 684.17)" fill="url(#linear-gradient-16)"/><ellipse id="Ellipse_107" cx="40.141" cy="5.685" data-name="Ellipse 107" rx="40.141" ry="5.685" transform="translate(338.475 224.228)" fill="url(#linear-gradient-17)"/><g id="Group_3481" data-name="Group 3481" transform="translate(315.564 20.758)"><g id="Group_3476" data-name="Group 3476" transform="translate(24.096 1.24)" opacity=".5"><g id="Group_3473" data-name="Group 3473" transform="translate(19.705 18.812)"><path id="Path_3301" d="M1599.208-638.964l-6.208-2.825 1.3 5.168 1.561-.781-.669.335 1.673 2.305-.781.706.855 1.828 1.3.291 2.7 4.238.539.855.446 1.822 1.329.892.753-1.041-.251-2.528 2.523-2.9-1.609 1.849 1.6 1.051 1.6 1.107-1.344.826-1.64 3.16.19 3.718 1.293-1.989 2.032 1.989 2.289.446 1.227-1.339 2.788-3.086 6.19 1.747 3.625 4.424v-4.61l-2.6-2.64 2.588-2.071-1.609 1.288 7.609 4.91 2.677 1.785 2.119 1.245 2.082-1.654.483 2.528 2.491 1.487-.781-5.391-3.128.873-.739-3.1-1.487-1.376-.687.309.167-1.239 3.272-1.008-6.276-2.34-1.636 1.107 1.115 2.053-1.19.781-.892-1.822h-.013l-1.4-2.561-4.4-.373-2.1 2.192.011 1.232-1.275 1.37.818 1.041-4.759-2.268-.074-3.978.706-1.264-4.578-6.275.06-1.012.875.3.558-1.19-.706-1.078 2.082-6.432.855 1.673-.632 2.714h1.041l1.859-6.506 1.933-5.8-1.152-1.115-.074-2.193-2.268-.335-.335-1.041-1-2.937 1-2.231-.781-3.309-.929.781-.967 2.565-1.078.818-6.357-2.231h-2.788l-1.562 1.9h-1.078l-.409.372.669 1.3-1 3.2.929.149v.013l-.781 1.326v3.234l.967.818-.483 1.822.983 2.268h-1.02v4.015l1 .818v1.524l.892.781-.056 1.413z" class="cls-49" data-name="Path 3301" transform="translate(-1593 666.959)"/><path id="Path_3302" d="M1599.331-630.292l.818-1.376 1.227-2.045z" class="cls-49" data-name="Path 3302" transform="translate(-1593.717 663.194)"/><path id="Path_3303" d="M1607.921-628.121l-1.277.218 5.038-.861z" class="cls-49" data-name="Path 3303" transform="translate(-1594.545 662.634)"/><path id="Path_3304" d="M1610.564-636.029l1.311-2.163 3.615-5.966-4.926 8.129 1.545 2.472-3.346-5.354z" class="cls-49" data-name="Path 3304" transform="translate(-1594.785 664.377)"/><path id="Path_3305" d="M1606.955-654.675l-1.652 3.487-.69 1.458z" class="cls-49" data-name="Path 3305" transform="translate(-1594.315 665.568)"/><path id="Path_3306" d="M1606.066-629.067l-2.166-4.788-.5-1.115z" class="cls-49" data-name="Path 3306" transform="translate(-1594.177 663.337)"/></g><g id="Group_3474" data-name="Group 3474" transform="translate(51.418 93.8)"><path id="Path_3307" d="M1673.189-563.547l-1.245-4.758-1.87.275-4.6.677-2.819.415 1.869 4.656-3.524-8.784 1.656 4.128 9.293-1.367.688-2.417-1-1.97h-1.537l-.114-.685 1.782-1.132-3.8-5.2-2.519-.826-5.428-1.86-.372 1.19 1.933 1.859 1.338 4.982h-4.573l-.818 1.748-1-.707-2.788 1.078 1.264 3.68-2.974-1-1.3 2.194-.669 1.19.669 1.487-2.008-.037-4.189 3.781.322-1.346-4.2-1.385 2.34.771 1.86.614 1.265-5.052-3.42-.023-1.375.023-1.451 2.728-.223-.929-.744.186-1.71 4.356-5.948.849-1.97 8.923-.521 2.417 1.116 1.226 1.561-.558 1.487-5.54 1.115-3.978 2.937-.967.707 3.9 1.933-.93.892-3.567.149 2.443 2.807 1.338.39-.865-1.5-2.881h1.766l.308-1.287-.159.729.967 1.3c.108.036 5.879.74 6.193.779l-.266 1.508-.418.865 1.821.568-1.821-.558-2.008.892-.781 3.234s2.231 3.978 2.268 4.09a21.291 21.291 0 002.565.372l1.078 1.265 2.417-4.461-1.846 3.41-.57 1.052.818 1 6.878.521.26-1.524.186-1.078 1.151-.3-.5.129 1.429 4.221 3.569-4.2-1.451-2.342.558-1.933-3.829-1.673 2.863-6.432.678 2.194 1.181.521.346-3.487 1.729 2.659-.96 2.315 2.119 4.536 1.265-.149-.2-4.907 1.022.075z" class="cls-49" data-name="Path 3307" transform="translate(-1628.762 582.396)"/><path id="Path_3308" d="M1669.089-578.664l-.007 1.148-.03 5.135z" class="cls-49" data-name="Path 3308" transform="translate(-1633.324 581.974)"/><path id="Path_3309" d="M1657.061-556.287l3.582-1.995z" class="cls-49" data-name="Path 3309" transform="translate(-1631.966 579.666)"/><path id="Path_3310" d="M1664.231-549.652l.425.7.913 1.5z" class="cls-49" data-name="Path 3310" transform="translate(-1632.778 578.689)"/></g><path id="Path_3311" d="M1633.056-589.624l1.979-1.45.641-5.688-.614-.223-.564 1.324-2.5-.99-1.574 1.768-7.4-1.768v1.785l.067-.052 1.439.526.613 13.189 1 .2.622-2.04 5.847-4.5z" class="cls-49" data-name="Path 3311" transform="translate(-1576.694 677.848)"/><g id="Group_3475" data-name="Group 3475"><path id="Path_3312" d="M1610.337-686.165l-1.431.521.836.967zm3.578 59.074l.9.6h1.4v-.558l-1.265-.711zm-1.05-9.888l1.784 3.011h.967l1.375-3.011zm36.025 50.971v-1.338l-1.057-1.338-1.8 2.008 1.794-.223zm-40.339-89.9l1.19-2.454-.67-.39-1 1.729zm29.854 46.1l-2.974-3.123-.185 5.433 1.71.478zm14.388 32.977l-2.119-.892v1.338l2.119 1.711zm-50.357-75.341l-.271-1.06-1.978 2.119h1.3zm-.964 2.807l1.651.483 1.32-1-.837-.78h-1.226zm6.819-15.317v1.821l.577-1.375zm52.644 88.038l-1.153-2.454-.855.185.26 3.384zm-55.266-78.2l-1.728-.39 1.069 1.338zm2.287-13.328l-1.339 1.562 1.45-.224zm-1.822 17.511l.818-.446.613-1.339-1.431-.78-.465 1.06zm29.929 87.331l1.636-.279.316-2.008-2.565 1.561zm-6.581-35.245l-4.963-2.045-.27.707 5.233 2.788zm-4.684 23.051l-.224 2.342 1.032 1.208 1.031-5.335zm18.012-4.7l.725.614 1.041-.112-.92-1.236zm-20.466-13.44l-1.227 1.6 3.681-.186-.558-1.413zm37.141 19l-1.19.149.632 1.338zm-4.127-7.25l-1.747 2.1 1.264 3.625 1.933 1.19-.223-2.714-1.227-.78zm-22.79-10.558l5.279 2.714.149-3.011-8.848-3.555.334 6.344zm17.437 13.31l.483.818 1.3-.929-.818-2.268-1.487-.372-2.268 3.83v.818l2.455.632.223-.967-.892-.483.149-1zM1625.134-585l6.637 3.347 2.063-2.816-3.29-5.1 3.4-11.823-3.569.335L1627.2-595l1.282 3.309-1.282 3.011-3.9.278zm20.9-6.059l-.419-3.607-3.638-1.1-1.338 1.1-1.9 3.7-.447-.092-1.115.594v1.116l2.62.669zm-9.3 2.714l-.948 1.673 1.915-.506.316-1.5zm12.752-13.57l-1-.26-.483-4.61-1.637-.818-4.2.818-.971-2.156-.948-.335.019 1.97 2.612 4.351h1.227v-1.6l3.16 3.383-.037 3.086zm-5.614-.3v1.116l1.027-.967zm-10.642-15.773l-1.757.363 4.034 2.956v-1.231zm6.739 4.025l-1.97.278.186.576 1.784.334zm-6.023 9.666l1.813.614-.962-2.063-.962.5zm2.343 14.384l-.53-3.565 2.9-2.044.53-4.764-1.227-5.683-2.2 3.346-.251 6.432-2.016 2.769.083 5.745 1.222 1.672zm-38.666-30.556h2.306l-3.248-1.785zm13.013 76.215l1.078 1 .334-1.3-1.115-.112zm1.152-65.173l1.116-6.655-3.272-2.825h-8.477l-.743 1.45 4.536 2.193 3.383 7.956 2.045-1.264zm-3.011 59.6l.743-.3.41-1.97h-.93zm2.012-46.5l-1.129.549-.028 2.415h.892l.83-1.294zm-4.391 48.47h-.558l-.595.836.595.836h.558zm-2.937 9.591l3.271-1.784v-2.119l-4.461 2.937zm-6.655-64.913l.224 2.231 1.672 1.338h.818l.446-.727-1.487-2.842zm4.2-3.383l-1.19 1.116-.816-1.344s-3.309-.521-3.421-.521l2.045 2.789 2.417.631 2.9-.892zm11.785 62.347l.836.595.836-.334-.557-.892zm18.589-22.158l-.52.688.52 1.023 1.487-.967-.483-.632zm25.43 14.164l.855.6.521-1.487h-1.115zm-35.319-4.424l1.86 2.082h.855l2.714-3.346-3.271-.595zm-1.264.409v-1.676l-.819.836zm-2.863 6.172l-2.008-.595-2.565 1.19.78 2.156 2.416-.818.2-1.116 1.543 1.116 1.859-1.859-1.078-1.3zm-20.077-39.669l1.6 1.264.372-.483.372-1.45-1.245-.372zm15.653 43.421h-.707l-.186.912 1.19-.251zm-12.158-56.25l.52.521.632-.632-.967-.969zm-5.428 6.841l-.744.446.186.446h1.45l-.372-.6zm2.566-1.45v-.781l-1.487-.78-.558.892.558.669zm-25.876 34.911h-.669v1l1.153-.149zm47.4-47.514v-4.609l-.929-.3-.465 2.6-1.394.78 1.859 2.045zm-8.811 58.518l1.078.279-.558-1.134zm7.367-67.628v-2.268l-2.156-1.3-1.924.743 1.422 2.6zm-47.216 59.6l1.9.78.334-2.528-1.859.3zm40.859-48.629l-.706.594.42 1.041 1.14-.818zm-15.763 14.685l.929-.483-1.227-.483zm18.217-11.3l-.743-1.45-1.023.594.167.856zm-26.768 49.633l.3.483.632-.149-.334-1.116zm7.138 1v1.226l1.487-1-1.041-.521zm-14.24-9.072l-.334 1.227 1.859-.019.224.5 1.078-1.032-1.933-1.031zm-5.725.149v1l.558.056.483-.763-.521-.3zm1.45-1.339v.893l1.078-.558-.539-.335zm-3.9 1.339h.558l.409-.5-.967-.5zm2.77-1.339h-.427v1l.855-.5z" class="cls-49" data-name="Path 3312" transform="translate(-1570.779 688.173)"/></g><path id="Path_3313" d="M1656.227-603.779l-1.152 3.606 1.636.335.372 1 2.528.52 2.268-1.45 1.562 1.6 1.6-.855-1.264-2.119h-1.9l-2.082-3.011.372-5.214-5.763-2.63-.558 1.524-6.785 1.771 1.831 2.907z" class="cls-49" data-name="Path 3313" transform="translate(-1579.416 679.548)"/></g><g id="Group_3480" data-name="Group 3480"><g id="Group_3477" data-name="Group 3477"><path id="Rectangle_1032" d="M0 0h125.117v74.984H0z" data-name="Rectangle 1032" transform="rotate(90 37.492 37.492)" fill="url(#linear-gradient-18)"/><path id="Rectangle_1033" d="M0 0h102.292v70.984H0z" class="cls-28" data-name="Rectangle 1033" transform="rotate(90 30.886 42.098)"/><circle id="Ellipse_108" cx="1.513" cy="1.513" r="1.513" class="cls-28" data-name="Ellipse 108" transform="translate(35.979 2.593)"/></g><g id="Group_3479" data-name="Group 3479" transform="translate(8.59 115.688)" opacity=".1"><g id="Group_3478" data-name="Group 3478" transform="translate(0 1.569)"><path id="Rectangle_1034" d="M0 0h.887v3.89H0z" data-name="Rectangle 1034"/><path id="Rectangle_1035" d="M0 0h.887v3.89H0z" data-name="Rectangle 1035" transform="translate(2.161)"/><path id="Rectangle_1036" d="M0 0h.887v3.89H0z" data-name="Rectangle 1036" transform="translate(4.321)"/></g><path id="Path_3314" d="M1588.566-554.194h-4.775v-4.776h4.775zm-3.889-.887h3v-3h-3z" data-name="Path 3314" transform="translate(-1556.747 560.096)"/><path id="Path_3315" d="M1617.3-554.084l-2.513-2.514 2.513-2.514.627.627-1.886 1.887 1.886 1.887z" data-name="Path 3315" transform="translate(-1560.257 560.112)"/></g></g><path id="Path_3316" d="M1603.272-668.158l1.651.483 1.32-1-.837-.78h-1.226zm.964-2.807l-.271-1.06-1.978 2.119h1.3zm3.234-2.677l-1.728-.39 1.069 1.338zm-7.751 77.684v-.781l-1.487-.78-.558.892.558.669zm-2.045 3.941l.929-.483-1.227-.483zm-.521-2.491l-.744.446.186.446h1.45l-.372-.6zm-2-2.231l-1.008 2.528 1.131 5.019-1.135-1.97s-.856 1.487-.744 1.6 1.3.929 1.3.929l-8.03 11.633h3.459l-.074-2.861.521.819 2.752-1.375 2.268-4.834 2.788-.631v-4.834l-1.952.037zm20.56-29.149l.9.6h1.4v-.558l-1.265-.711zm-1.05-9.888l1.784 3.011h.967l1.375-3.011zm-6.73-33.683l.818-.446.613-1.339-1.431-.78-.465 1.06zm2.417-5.243l1.19-2.454-.67-.39-1 1.729zm3.086 68l-.706.594.42 1.041 1.14-.818zm.688 2.527l.167.856h1.6l-.743-1.45zm5.669-15.763l-2.156-1.3-1.924.743 1.422 2.6 2.658.224zm-.892 15.95l.067-.051 1.438.526.614 13.189 1 .2.622-2.04.778-.6v-11.932l-4.523-1.08zm2.342-4.573v-4.609l-.929-.3-.465 2.6-1.394.78 1.859 2.045zm2.181-2.33v-.636l-.507.662zm-1.867-18.823l-2.1 2.192.011 1.233-1.274 1.37.818 1.041-4.759-2.268-.074-3.978.706-1.265-4.578-6.275.059-1.012.875.3.557-1.189-.706-1.078 2.082-6.432.855 1.672-.632 2.714h1.041l1.859-6.506 1.933-5.8-1.152-1.116-.074-2.194-2.268-.334-.335-1.041-1-2.937 1-2.23-.78-3.309-.929.781-.967 2.565-1.078.818-6.357-2.231h-2.79l-1.562 1.9h-1.078l-.409.372.669 1.3-1 3.2.929.148v.013l-.78 1.326v3.234l.967.818-.483 1.821.982 2.268h-1.02v4.015l1 .819v1.524l.892.78-.056 1.413-2.063 1.116-6.208-2.825 1.3 5.167 1.562-.78-.67.334 1.673 2.3-.781.707.856 1.828 1.3.291 2.7 4.238.539.855.446 1.822 1.329.892.753-1.041-.251-2.528 2.523-2.9-1.609 1.849 1.6 1.051 1.6 1.108-1.344.826-1.64 3.16.19 3.717 1.294-1.989 2.032 1.989 2.289.447 1.226-1.339 2.789-3.086 6.19 1.748 3.24 3.954v-4.531l-2.218-2.249 2.218-1.774v-2.639zm-23.662-5.541l.819-1.375 1.226-2.045zm4.11-3.42l-.5-1.116 2.669 5.9zm3.653 5.031l-1.278.218 5.039-.862zm3.949-3.693l-3.346-5.353 1.8 2.881 1.312-2.164 3.615-5.965-4.927 8.129zm13.817 12.211v-1.79l-1.239.991zM1598.6-601.98l.224 2.231 1.672 1.338h.818l.446-.727-1.487-2.842zm12.855 7.4l-.028 2.415h.892l.83-1.294-.565-1.67zm-9.843-9.668l-.818-1.339s-3.309-.521-3.421-.521l2.045 2.789 2.417.631 2.9-.892-1.933-1.784zm-2.528 15.726l1.6 1.264.372-.483.372-1.45-1.245-.372zm3.495-12.826l.52.521.632-.632-.967-.969zm-4.1-19.705l.943 1.785h2.306zm15.107 12.827l1.116-6.655-3.272-2.825h-8.477l-.743 1.45 4.536 2.193 3.383 7.956 2.045-1.264z" data-name="Path 3316" transform="translate(-1548.482 688.21)" fill="#57aae6" opacity=".2"/></g><g id="Group_3483" data-name="Group 3483" transform="translate(188.444 65.092)"><g id="Group_3482" data-name="Group 3482"><path id="Path_3317" d="M1425.96-585.145l-2.56 8.945 5.034 22.341 6.658 1.533 1.513-24.269-2.136-5.815z" class="cls-41" data-name="Path 3317" transform="translate(-1402.877 633.414)"/><path id="Path_3318" d="M1428.312-610.432l-3.741 11.619-5.8-2.016 2.879-10.156z" class="cls-38" data-name="Path 3318" transform="translate(-1402.352 636.34)"/><path id="Path_3319" d="M1429.236-619.42l1.675 2.917-2.321 9.3-7.593-2.25 2.55-8.552z" class="cls-37" data-name="Path 3319" transform="translate(-1402.604 637.295)"/><path id="Path_3320" d="M1435.577-585.805l-2.677 11.063 5.034 22.341 6.657 1.533 1.513-24.269-1.2-5.783z" class="cls-41" data-name="Path 3320" transform="translate(-1403.952 633.489)"/><path id="Path_3321" d="M1444.47-583.411l-19.514-2.655 1.461-30.924-2.546-1.2 10.673-2.852 15.085 2.914-4.64 3.279z" class="cls-37" data-name="Path 3321" transform="translate(-1402.93 637.479)"/><path id="Path_3322" d="M1421-609.57l2.55-8.552 8.685-2.321 5.3.108 4.336.837-14.317 1.663-3.433 1.835z" class="cls-44" data-name="Path 3322" transform="translate(-1402.604 637.411)"/><path id="Path_3323" d="M1438.7-620.277l-3.079 1.348-1.952-1.273.137-7.79 4.214-.12z" class="cls-35" data-name="Path 3323" transform="translate(-1404.039 638.279)"/><path id="Path_3324" d="M1438.223-629.864l1.217-.42.383 1.562-1.058 1.229-.714.09z" class="cls-38" data-name="Path 3324" transform="translate(-1404.535 638.525)"/><path id="Path_3325" d="M1437.959-630.8l-.379 3.508-3.122 2.646-2.094-.033-1.516-2.911.766-7.416 1.63-1.007 3.187.744 1.114.533s.807 2.587.414 3.936z" class="cls-35" data-name="Path 3325" transform="translate(-1403.72 639.174)"/><path id="Path_3326" d="M1438.045-634.793l-.324 2.8.537.863.2 1.573 1.591-4.611-1.586-1.213z" class="cls-37" data-name="Path 3326" transform="translate(-1404.498 639.102)"/><path id="Path_3327" d="M1431.372-635.284l-.457 2.943.277.467-.043 1.644.23-2.467.375-2.109z" class="cls-37" data-name="Path 3327" transform="translate(-1403.727 639.091)"/><path id="Path_3328" d="M1436.736-634.841l-.981-.227-4.677.214-1.35-1.575.784-2.087 4.221-1.062 4.078 2.941-1.73 4.257z" class="cls-37" data-name="Path 3328" transform="translate(-1403.593 639.577)"/><path id="Path_3329" d="M1438.576-548.136l4.274 23.948 5.465.121-.225-14.031-2.817-9.144z" class="cls-41" data-name="Path 3329" transform="translate(-1404.595 629.224)"/><path id="Path_3330" d="M1429.081-549.859l4.085 24.268 5.465.121-.225-14.031-2.817-9.144z" class="cls-41" data-name="Path 3330" transform="translate(-1403.52 629.419)"/><path id="Path_3331" d="M1432.484-523.214l-6.753 5.452 12.713.333-1-5.4z" class="cls-36" data-name="Path 3331" transform="translate(-1403.141 626.402)"/><path id="Path_3332" d="M1447.642-609.286l3.741 11.619 5.617-2.286-2.879-10.156z" class="cls-38" data-name="Path 3332" transform="translate(-1405.621 636.241)"/><path id="Path_3333" d="M1446.362-618.8l-1.579 3.141 2.321 9.3 7.593-2.25-2.7-9.269z" class="cls-37" data-name="Path 3333" transform="translate(-1405.298 637.224)"/><path id="Path_3334" d="M1437.124-618.52h-2.4l.274 2.977h1.3z" class="cls-45" data-name="Path 3334" transform="translate(-1404.159 637.193)"/><path id="Path_3335" d="M1442.846-521.461l-6.753 5.452 12.713.333-1-5.4z" class="cls-36" data-name="Path 3335" transform="translate(-1404.314 626.204)"/><path id="Path_3336" d="M1421.519-592.733l-14.895-7.114 1.12-2.485 15.682 3.782z" class="cls-35" data-name="Path 3336" transform="translate(-1400.977 635.36)"/><path id="Path_3337" d="M1407.023-602.818l-.967-2.544-1.846-1.263s-.2 1.186-.37 1.148-3.584-.954-3.584-.954l.99 4.46 2.99 1.378 1.785.279z" class="cls-35" data-name="Path 3337" transform="translate(-1400.256 635.846)"/><path id="Path_3338" d="M1433.728-623.654l1.665.016 2.474-3.465-2.829 6.51z" class="cls-38" data-name="Path 3338" transform="translate(-1404.046 638.165)"/><path id="Path_3339" d="M1432.314-634.308l-.64.029-.282 1.633-.542 5.249 1.515 2.911-1.274-2.963.622-5z" class="cls-40" data-name="Path 3339" transform="translate(-1403.72 638.981)"/><path id="Path_3340" d="M1431-630.671l.059-1.689-.277-.467.3-2.027-1.35-1.575.784-2.087 4.221-1.062 4.078 2.941-4.117-1.938-3.491.768-.35 1.388.7 1.542-.295 1.67z" class="cls-39" data-name="Path 3340" transform="translate(-1403.593 639.577)"/><path id="Path_3341" d="M1449.768-617.757l2.7 9.269-7.593 2.25-.267 23.2-19.513-2.655 3.32-9.161 11.405-7.536z" class="cls-14" data-name="Path 3341" transform="translate(-1403.068 637.107)"/><path id="Path_3342" d="M1452.552-595.649l-9.529-10.024 1.831-1.807 11.623 7.825z" class="cls-35" data-name="Path 3342" transform="translate(-1405.098 635.943)"/><path id="Path_3343" d="M1444.436-607.975v-2.434l-1.142-1.641s-.546.926-.673.842-2.693-1.935-2.693-1.935l-.589 4.042 2.062 2.1 1.4.8z" class="cls-35" data-name="Path 3343" transform="translate(-1404.681 636.584)"/><path id="Path_3344" d="M1436.134-615.3l-.174 17.313-1.856 4.068-.861-4.373 1.6-17.008s.089-.827 1.291 0z" data-name="Path 3344" transform="translate(-1403.991 636.87)" fill="#65da9b"/><path id="Path_3345" d="M1425.1-581.6l17.306 7.116 1.346 23.452 1.473-23.63-.611-4.284z" class="cls-14" data-name="Path 3345" transform="translate(-1403.068 633.013)"/></g><path id="Path_3346" d="M1436.278-557.121l-3.349-14.864-2.453-1.384 5.419 22.381z" class="cls-14" data-name="Path 3346" transform="translate(-1403.678 632.081)"/></g><g id="Group_3484" data-name="Group 3484" transform="translate(58.423 81.2)"><path id="Path_3347" d="M1288.671-582.824l8.118.746-.58 3.769h-10.065z" class="cls-35" data-name="Path 3347" transform="translate(-1257.314 617.043)"/><path id="Path_3348" d="M1286.088-585.614l-7.2 7.95 3.5 3.554 6.059-9.466z" class="cls-37" data-name="Path 3348" transform="translate(-1256.493 617.359)"/><path id="Path_3349" d="M1276.894-602.63l-7.724 1.577-1.624 10.551 12.124 10.841 5.244-6.472z" class="cls-37" data-name="Path 3349" transform="translate(-1255.209 619.286)"/><path id="Path_3350" d="M1306.39-525.287l-.224 6.846 12.95-.293-8.7-5.921-.637-1.6z" class="cls-36" data-name="Path 3350" transform="translate(-1259.581 610.638)"/><path id="Path_3351" d="M1272-605.435l-13.411 6.416 6.916 24.289 2.041 7.167 15.092-1.717-3.56-26.953-3.371-6.96z" class="cls-37" data-name="Path 3351" transform="translate(-1254.194 619.603)"/><path id="Path_3352" d="M1274.869-611.5l-2.14 6.645 2.329 2.038 1.747.333 1.248-4.362z" class="cls-35" data-name="Path 3352" transform="translate(-1255.796 620.29)"/><path id="Path_3353" d="M1275.189-613.6l.077 3.779 4.771 3.2 1.23-4.022.789-.357.134-2.8.729-2.19-5.969-2.837-1.839 1.109z" class="cls-35" data-name="Path 3353" transform="translate(-1256.065 621.12)"/><path id="Path_3354" d="M1277.832-616.291l-.845 2.74-.8.183-.388 1.118-.264-.02.1-1.784-.632-.438-.34-3.285a22.468 22.468 0 013.169 1.486z" data-name="Path 3354" transform="translate(-1256.015 621.001)" fill="#24599e"/><path id="Path_3355" d="M1274.541-614.388l-.083 2.33.986.455.414-2.151z" class="cls-38" data-name="Path 3355" transform="translate(-1255.991 620.617)"/><path id="Path_3356" d="M1283.218-619.026l.06 2.945-4.858-.03.591-.731-1.263.14-3.167-1.487-.652-1.171 2.541-1.844 3.177-.209z" class="cls-37" data-name="Path 3356" transform="translate(-1255.931 621.412)"/><path id="Path_3357" d="M1278.6-606.448l-1.838-1.233.713 3.4z" class="cls-38" data-name="Path 3357" transform="translate(-1256.253 619.858)"/><path id="Path_3358" d="M1268.993-563.29l36.159-3.8.571 36.673-3.638 1.031-3.2-17.865.448-10.7-24.714 3.793-5.714-.049z" class="cls-41" data-name="Path 3358" transform="translate(-1255.363 615.261)"/><path id="Path_3359" d="M1287.45-566.24l17.513-11.386 12.843 28.373-3.366 3.253-9.122-12.054-3.254-9.7z" class="cls-41" data-name="Path 3359" transform="translate(-1257.462 616.455)"/><path id="Path_3360" d="M1318.137-542.482l2.679 5.961 11.621-5.7-10.383-1.694-1.252-1.178z" class="cls-36" data-name="Path 3360" transform="translate(-1260.937 612.771)"/><path id="Rectangle_1037" d="M0 0h2.256v35.372H0z" class="cls-37" data-name="Rectangle 1037" transform="rotate(-20.845 77.066 14.176)"/><path id="Rectangle_1038" d="M0 0h2.256v27.661H0z" class="cls-37" data-name="Rectangle 1038" transform="rotate(-2.455 1435.664 -480.785)"/><path id="Rectangle_1039" d="M0 0h1.632v25.092H0z" class="cls-37" data-name="Rectangle 1039" transform="rotate(-94.94 34.6 25.674)"/><path id="Path_3361" d="M1273.967-518.129h12.927l-5.905-6.065-1.809.053z" class="cls-37" data-name="Path 3361" transform="translate(-1255.936 610.405)"/><path id="Path_3362" d="M1297.185-575.771l-10.815 7.625 9.993-3.465z" class="cls-43" data-name="Path 3362" transform="translate(-1257.34 616.245)"/><path id="Path_3363" d="M1291.5-574.563l2.7-1.1 1.146.255-.668 4.074-2.992-.191-1.2-.693z" class="cls-35" data-name="Path 3363" transform="translate(-1257.806 616.233)"/><path id="Path_3364" d="M1297.528-587.2l-2.63 14.646 11.469-3.8 1.883-14.162z" class="cls-43" data-name="Path 3364" transform="translate(-1258.306 617.914)"/><path id="Path_3365" d="M1273.929-619.36a31.035 31.035 0 012.542-1.844l3.177-.208 3.571 2.386-3.583-1.35-3.47.282z" class="cls-39" data-name="Path 3365" transform="translate(-1255.931 621.412)"/><path id="Path_3366" d="M1281.958-609.632l-.748-.255.52 1z" class="cls-38" data-name="Path 3366" transform="translate(-1256.756 620.107)"/><path id="Path_3367" d="M1279.851-595.695l-3.262-7.21-10.2 28.462 2.321 7.1 14.812-1.647-1.589-11.236z" class="cls-14" data-name="Path 3367" transform="translate(-1255.078 619.317)"/><path id="Path_3368" d="M1279.422-581.445l11.734 6.6-1.011 2.342-14.3-2.451z" class="cls-35" data-name="Path 3368" transform="translate(-1256.149 616.887)"/><path id="Path_3369" d="M1266.013-600.661l-7.574 2.183-.784 10.646 12.944 9.847 4.715-6.867z" class="cls-37" data-name="Path 3369" transform="translate(-1254.089 619.063)"/><path id="Path_3370" d="M1276.938-583.857l-7.047 8.082 3.564 3.489 5.882-9.577z" class="cls-37" data-name="Path 3370" transform="translate(-1255.474 617.16)"/><path id="Path_3371" d="M1275.3-581.276l2.25-2.58 2.4 1.994-2.414-.888z" class="cls-44" data-name="Path 3371" transform="translate(-1256.087 617.16)"/><path id="Path_3372" d="M1268.689-563.152l31.251-3.335 3.254 9.7 2.15 3.626-6.044 8.428-.438-2.446.448-10.7-29.276 3.293-1.344-3.53z" class="cls-14" data-name="Path 3372" transform="translate(-1255.338 615.193)"/><path id="Path_3373" d="M1271.307-605.064l-12.769 6.088 5.27-1.074z" class="cls-44" data-name="Path 3373" transform="translate(-1254.189 619.561)"/><path id="Path_3374" d="M1258.438-598.373l-.784 10.646 2-9.454 6.773-2.553-3.747.137z" class="cls-44" data-name="Path 3374" transform="translate(-1254.089 618.958)"/><path id="Path_3375" d="M1275.433-586.464l-4.728-8.036 2.364 5.874z" class="cls-44" data-name="Path 3375" transform="translate(-1255.566 618.365)"/><path id="Path_3376" d="M1284.153-590.155l2.158 4.438.372-.411 2.362 2.038-2.446-1.034-.68.736z" class="cls-44" data-name="Path 3376" transform="translate(-1257.089 617.873)"/></g><g id="Group_3489" class="cls-23" data-name="Group 3489" transform="translate(465.436 81.449)"><path id="Path_3377" d="M1695.438-618.079h-5.957l-4.212 4.212v5.957l4.212 4.212h5.957l4.212-4.212v-5.957z" class="cls-55" data-name="Path 3377" transform="translate(-1680.518 622.786)"/><g id="Group_3485" class="cls-22" data-name="Group 3485" transform="translate(10.473)"><path id="Path_3378" d="M1691.722-621.3l1.469-2.091 1.469 2.091z" class="cls-56" data-name="Path 3378" transform="translate(-1691.722 623.387)"/><path id="Path_3379" d="M1694.659-598.812l-1.469 2.091-1.469-2.091z" class="cls-56" data-name="Path 3379" transform="translate(-1691.722 620.604)"/></g><g id="Group_3486" class="cls-22" data-name="Group 3486" transform="translate(3.498 3.498)"><path id="Path_3380" d="M1700.062-619l2.517-.44-.44 2.517z" class="cls-56" data-name="Path 3380" transform="translate(-1685.691 619.443)"/><path id="Path_3381" d="M1686.373-601.159l-2.517.44.44-2.517z" class="cls-56" data-name="Path 3381" transform="translate(-1683.856 617.608)"/></g><g id="Group_3487" class="cls-22" data-name="Group 3487" transform="translate(0 10.473)"><path id="Path_3382" d="M1704.487-611.576l2.091 1.469-2.091 1.469z" class="cls-56" data-name="Path 3382" transform="translate(-1682.694 611.576)"/><path id="Path_3383" d="M1682-608.639l-2.091-1.469 2.091-1.469z" class="cls-56" data-name="Path 3383" transform="translate(-1679.911 611.576)"/></g><g id="Group_3488" class="cls-22" data-name="Group 3488" transform="translate(3.498 3.498)"><path id="Path_3384" d="M1702.139-603.237l.44 2.517-2.517-.44z" class="cls-56" data-name="Path 3384" transform="translate(-1685.691 617.608)"/><path id="Path_3385" d="M1684.3-616.925l-.44-2.517 2.517.44z" class="cls-56" data-name="Path 3385" transform="translate(-1683.856 619.443)"/></g></g><path id="Path_3386" d="M1350.237-706.892l-1.685-6.088-1.425 6.088-5.666 1.25 5.666 1.5 1.672 5.594 1.438-5.854 5.653-1.485z" class="cls-55" data-name="Path 3386" transform="translate(-1205.155 712.98)"/><g id="Group_3512" data-name="Group 3512" transform="translate(71.182 -280.725)"><circle id="Ellipse_111" cx="21.757" cy="21.757" r="21.757" data-name="Ellipse 111" transform="rotate(-3.562 7117.038 -994.646)" fill="#f29224"/><path id="Path_3493" d="M124.929 477.21a4.217 4.217 0 003.128-3.226c.716-2.669-1.385-5.532-4.323-6.319l-.287-.077 1.053-3.932-2.443-.656-1.057 3.933-1.913-.512.965-3.956-2.426-.65-1.053 3.933-4.956-1.328-.814 3.036 2.287.613a1.045 1.045 0 01.69 1.3l-2.924 10.914a1.045 1.045 0 01-1.25.785l-1.691-.453-1.388 2.8 4.956 1.328-1.053 3.932 2.513.674 1.057-3.931 1.913.512-1.053 3.932 2.443.654 1.053-3.932c3.627.972 7.958.455 9.127-3.907a4.662 4.662 0 00-2.554-5.467m-6.658-7.754l2.78.745a2.168 2.168 0 011.778 2.677 2.13 2.13 0 01-2.878 1.429l-2.781-.745zm-.143 13.9l-3.341-.9 1.479-5.628 3.369.9c1.948.521 2.875 1.975 2.438 3.665s-1.936 2.494-3.944 1.956" class="cls-58" data-name="Path 3493" transform="translate(-19.782 -15.494)"/></g><g id="Group_3514" data-name="Group 3514" transform="translate(-382.518 -194.976)"><circle id="Ellipse_112" cx="19.846" cy="19.846" r="19.846" data-name="Ellipse 112" transform="rotate(-3.562 7305.711 -7185.62)" fill="#607bf2"/><g id="Group_3513" data-name="Group 3513" transform="translate(471.99 442.633)"><path id="Path_3494" d="M524.339 484.285l9.6 5.767-9.6 5.767z" data-name="Path 3494" transform="translate(-514.742 -473.956)" fill="#7f95f5"/><path id="Path_3495" d="M504.84 484.285l-9.6 5.767 9.6 5.767z" class="cls-61" data-name="Path 3495" transform="translate(-495.243 -473.956)"/><path id="Path_3496" d="M504.84 463.3l-9.6 5.767 9.6-16.1z" class="cls-58" data-name="Path 3496" transform="translate(-495.243 -452.969)"/><path id="Path_3497" d="M524.339 463.3l9.6 5.767-9.6-16.1z" class="cls-61" data-name="Path 3497" transform="translate(-514.742 -452.969)"/><path id="Path_3498" d="M524.339 513.526v8.069l9.6-13.836z" class="cls-61" data-name="Path 3498" transform="translate(-514.742 -489.688)"/><path id="Path_3499" d="M504.84 513.526l-9.6-5.767 9.6 13.836z" class="cls-58" data-name="Path 3499" transform="translate(-495.243 -489.688)"/></g></g><g id="Group_3452" data-name="Group 3452" transform="translate(49.359 250.144)"><g id="Group_3451" data-name="Group 3451" transform="translate(0 18.934)"><g id="Group_3450" data-name="Group 3450" transform="translate(5.843)"><path id="Path_3199" d="M1266.342-358.557s7.887-4.488 8.1-4.488 4.2 2.553 4.2 2.987-2.492 19.069-2.492 19.069l-13.434-9.66 2.406-1.72z" class="cls-37" data-name="Path 3199" transform="translate(-1251.442 404.28)"/><path id="Path_3200" d="M1274.635-363.045l-3.982 17.035-6.231-4.69 2.919-2.576-.807-5.281z" class="cls-14" data-name="Path 3200" transform="translate(-1251.635 404.28)"/><path id="Path_3201" d="M1267.035-396.885l-.938 6.147-3.321-1.016 1.263-6.147z" class="cls-35" data-name="Path 3201" transform="translate(-1251.448 408.227)"/><path id="Path_3202" d="M1255.307-386.506l-.111 19.016-5.196 17.165 19.54-9.144-2.416-11.019 5.434-10.412-4.626-7.314-6.653-3.709z" class="cls-37" data-name="Path 3202" transform="translate(-1250.002 407.55)"/><path id="Path_3203" d="M1253.9-353.182l.84 10.072 29.115 10.654 3.8-3.057-22.991-19.045z" class="cls-37" data-name="Path 3203" transform="translate(-1250.443 403.319)"/><path id="Path_3204" d="M1283.622-330.512l-30.53-1.856-1.225-3.164 17.449-1.856z" class="cls-37" data-name="Path 3204" transform="translate(-1250.213 401.375)"/><path id="Path_3205" d="M1268.781-406.365l-.2 4.512.719 1.762-.491.3-.705 3.383-4.691-2.017-3.039-6.321 5.325-2.808z" class="cls-35" data-name="Path 3205" transform="translate(-1251.176 409.319)"/><path id="Path_3206" d="M1264.706-390.3l-8.847 22.893.294-19.907 6.834-3.849z" class="cls-14" data-name="Path 3206" transform="translate(-1250.665 407.464)"/><path id="Path_3207" d="M1264.713-409.545l-5.833.891.031 4.389-.939 2.159-3.312 5.089-1.834 5.415 1.156 7.889 7.837-8.739 2.058-3.982-.86-4.161 3.634-3 1.79-3.356z" class="cls-37" data-name="Path 3207" transform="translate(-1250.322 409.545)"/><path id="Path_3208" d="M1265.354-409.545l-5.832 1.034.029 4.076-1.064 2.523 1.98-2.066-.31-3.339z" class="cls-44" data-name="Path 3208" transform="translate(-1250.963 409.545)"/><path id="Path_3209" d="M1268.825-368.914l-3.82-7.3 7.231-1.812-.9 4.3z" class="cls-14" data-name="Path 3209" transform="translate(-1251.701 405.976)"/><path id="Path_3210" d="M1296.131-394.98l-4.8 1.194-.638 4.3 2.578 1.277 2.027-2.918z" class="cls-35" data-name="Path 3210" transform="translate(-1254.609 407.896)"/><path id="Path_3211" d="M1264.55-387.3c-.223.114.4 10.04.4 10.04l9.689 3.815 2.316-6.178-8.283-7.328z" class="cls-37" data-name="Path 3211" transform="translate(-1251.644 407.027)"/><path id="Path_3212" d="M1275.441-373.837l10.906 4.995 5.2-18.682-2.464-1.449-5.9 13.033-4.99-3.875z" class="cls-37" data-name="Path 3212" transform="translate(-1252.882 407.216)"/><path id="Path_3213" d="M1264.882-396.735l2.248.919-.469 3.071z" class="cls-38" data-name="Path 3213" transform="translate(-1251.687 408.095)"/><path id="Path_3214" d="M1254.79-342.965l13.032-8.876-1.669-1.435-11.782 5.514z" class="cls-14" data-name="Path 3214" transform="translate(-1250.497 403.174)"/><path id="Path_3215" d="M1266.573-337.148l18.209 6.663-22.673-6.115z" class="cls-14" data-name="Path 3215" transform="translate(-1251.373 401.348)"/></g><path id="Path_3216" d="M1250.91-335.352l-3.739-.435-3.759 8.667 8.722-5.067z" class="cls-36" data-name="Path 3216" transform="translate(-1243.413 401.194)"/><path id="Path_3217" d="M1270.224-387.74l2.208 3.49 6.339 5.482-7.084-4.486z" class="cls-44" data-name="Path 3217" transform="translate(-1246.448 407.076)"/></g></g></g><g id="Group_3491" data-name="Group 3491" transform="translate(1469.333 -671.639)"><path id="Path_3388" d="M1495.732-714.534v-5.105a5.106 5.106 0 00-5.106 5.105 5.106 5.106 0 005.106 5.106 5.105 5.105 0 005.1-5.106z" class="cls-62" data-name="Path 3388" transform="translate(-1490.626 719.639)"/><path id="Path_3389" d="M1497.8-719.639v3.694h3.694a3.694 3.694 0 00-3.694-3.694z" class="cls-62" data-name="Path 3389" transform="translate(-1491.438 719.639)"/></g><g id="Group_3492" data-name="Group 3492" transform="translate(1141.344 -398.895)"><path id="Path_3390" d="M1762.871-469.841l15.955-12.047v8.106l14.072-12.335" class="cls-63" data-name="Path 3390" transform="translate(-1762.871 486.455)"/><path id="Path_3391" d="M1792.128-486.161l4.463-.338-.38 4.241" class="cls-63" data-name="Path 3391" transform="translate(-1766.183 486.498)"/></g></g></svg>